<?xml version="1.0" standalone="no"?><!DOCTYPE svg PUBLIC "-//W3C//DTD SVG 1.1//EN" "http://www.w3.org/Graphics/SVG/1.1/DTD/svg11.dtd"><svg t="1646384013596" class="icon" viewBox="0 0 1024 1024" version="1.1" xmlns="http://www.w3.org/2000/svg" p-id="1926" xmlns:xlink="http://www.w3.org/1999/xlink" width="200" height="200"><defs><style type="text/css"></style></defs><path d="M819.370667 305.024c-6.101333 0-12.16-2.261333-16.917334-6.826667l-66.645333-64.341333a24.32 24.32 0 1 1 33.834667-35.050667l66.645333 64.341334a24.32 24.32 0 0 1-16.917333 41.877333M819.370667 810.453333c-6.101333 0-12.16-2.261333-16.917334-6.826666l-66.645333-64.341334a24.32 24.32 0 1 1 33.834667-35.050666l66.645333 64.341333a24.32 24.32 0 0 1-16.917333 41.877333M194.304 822.528H106.666667a21.333333 21.333333 0 1 1 0-42.666667h87.637333c123.605333 0 224.149333-105.941333 224.149333-236.16 0-130.197333-100.544-236.117333-224.149333-236.117333H106.666667a21.333333 21.333333 0 1 1 0-42.666667h87.637333c147.114667 0 266.816 125.077333 266.816 278.805334S341.418667 822.528 194.304 822.528" p-id="1927" fill="#E6E6E6"></path><path d="M813.376 817.557333h-115.584c-147.136 0-266.837333-125.056-266.837333-278.784 0-153.728 119.701333-278.826667 266.837333-278.826666h127.04a21.333333 21.333333 0 0 1 0 42.666666H697.813333c-123.605333 0-224.170667 105.941333-224.170666 236.16 0 130.197333 100.586667 236.117333 224.170666 236.117334h115.562667a21.333333 21.333333 0 1 1 0 42.666666" p-id="1928" fill="#E6E6E6"></path></svg>