<?xml version="1.0" standalone="no"?><!DOCTYPE svg PUBLIC "-//W3C//DTD SVG 1.1//EN" "http://www.w3.org/Graphics/SVG/1.1/DTD/svg11.dtd"><svg t="1646393112002" class="icon" viewBox="0 0 1024 1024" version="1.1" xmlns="http://www.w3.org/2000/svg" p-id="67548" xmlns:xlink="http://www.w3.org/1999/xlink" width="200" height="200"><defs><style type="text/css"></style></defs><path d="M959.133132 508.823658c0.034792-1.674129 0-3.499707-0.075725-5.320169 0-13.413498-10.860349-24.273846-24.27487-24.273847-13.375635 0-24.239054 10.860349-24.239053 24.273847-0.034792 2.40477-0.034792 4.591575 0.073678 6.705725-0.037862 0.436952-0.037862 0.874927-0.037863 1.239224 0 220.152049-179.035606 399.187655-399.150816 399.187655-220.077348 0-399.149792-179.035606-399.149792-399.187655 0-220.004693 179.035606-399.041322 399.079184-399.112953 3.388167 0.217964 7.034207 0.290619 10.96882 0.290619 13.413498 0 24.273846-10.861372 24.273846-24.27487 0-13.412474-10.859325-24.273846-24.273846-24.273846-4.885264-0.51063-9.365298-0.584308-13.450337-0.365321C263.104815 65.096601 63.547827 265.4927 63.547827 511.594771c0 246.978021 200.942545 447.882704 447.88168 447.882703 246.942205 0 447.885773-200.904683 447.885773-447.882703 0-0.948605-0.037862-1.896186-0.182148-2.771113z" p-id="67549" fill="#E6E6E6"></path><path d="M356.559277 576.618717c0-13.410428-10.861372-24.347524-24.27487-24.347525-13.412474 0-24.347524 10.937097-24.347524 24.347525 0 103.224989 83.977623 187.202613 187.237405 187.202612 13.413498 0 24.311709-10.862395 24.311708-24.276916s-10.898211-24.347524-24.311708-24.347524c-76.432787 0-138.615011-62.181201-138.615011-138.578172zM438.38591 511.594771c0 76.250638 61.999053 138.285506 138.250714 138.285506 76.252685 0 138.326439-62.034868 138.326439-138.285506 0-1.091868-0.037862-2.186805-0.037862-3.281743a50.906413 50.906413 0 0 1-0.073678-2.40477c0.11154-0.947582 0.11154-1.823532 0.11154-2.477424V168.173211c57.113789 34.043351 105.006566 81.645508 139.048893 138.361231a431.067736 431.067736 0 0 1 16.951067 31.27326c4.115738 8.526187 12.791327 13.992689 22.049179 13.992689 3.354398 0 6.634094-0.654916 9.696849-2.038426 6.121418-2.700505 10.936073-7.873318 13.267165-14.144138 2.261507-6.124488 1.89721-12.68388-0.910742-18.514679-6.235005-12.758582-12.647041-24.711821-19.208481-35.501562-45.197388-75.303057-110.584608-135.152143-189.096752-173.204807-2.040473-1.020236-4.300956-1.676176-6.778381-2.113127a25.371854 25.371854 0 0 0-9.222035-1.749854c-13.413498 0-24.311709 10.861372-24.311709 24.27487v277.522687c-24.928762-21.214161-56.67786-33.098839-89.734744-33.098839-76.252685 0.001023-138.327462 62.037938-138.327462 138.362255z m138.250714-89.809445c49.462528 0 89.701998 40.23947 89.701998 89.662089 0 49.498344-40.23947 89.737814-89.701998 89.737813-49.458435 0-89.735767-40.23947-89.735767-89.737813 0-49.422619 40.277332-89.662089 89.735767-89.662089z" p-id="67550" fill="#E6E6E6"></path></svg>