<?xml version="1.0" standalone="no"?><!DOCTYPE svg PUBLIC "-//W3C//DTD SVG 1.1//EN" "http://www.w3.org/Graphics/SVG/1.1/DTD/svg11.dtd"><svg t="1646393248762" class="icon" viewBox="0 0 1026 1024" version="1.1" xmlns="http://www.w3.org/2000/svg" p-id="77737" xmlns:xlink="http://www.w3.org/1999/xlink" width="200.390625" height="200"><defs><style type="text/css"></style></defs><path d="M308.025244 511.357987a25.962128 25.962128 0 0 1 25.082055-27.282235l256.541025 2.640216a25.522092 25.522092 0 1 1 0 51.484219l-256.541025-2.640216a25.522092 25.522092 0 0 1-25.082055-24.201984z m0-154.012621a25.522092 25.522092 0 0 1 25.962127-25.522092l359.509463 3.520288a25.522092 25.522092 0 1 1 0 51.48422L334.427407 383.307493a25.522092 25.522092 0 0 1-26.402163-25.962127z m718.578889 91.527501c-2.640216 242.45987-228.818752 436.075738-506.041471 440.036062l-19.801623 21.121731-3.520289 3.520288c-9.240757 9.240757-18.481515 17.601442-44.003606 38.723174a400.432817 400.432817 0 0 1-224.418392 71.725878 25.522092 25.522092 0 0 1-17.161406-7.040577 26.8422 26.8422 0 0 1-7.920649-27.282236 36.522993 36.522993 0 0 1 4.840397-11.000901 124.09017 124.09017 0 0 1 11.440937-13.641118l13.641118-15.401263 14.961226-18.481514a120.569881 120.569881 0 0 0 33.002705-100.328222 25.522092 25.522092 0 0 1 49.724075-12.32101 166.333632 166.333632 0 0 1-44.003606 143.891792l-4.400361 5.720469a340.587912 340.587912 0 0 0 137.291252-55.88458c22.001803-19.361587 30.802524-27.282236 39.163209-35.202885l3.080253-3.080252 25.962127-28.162308a25.522092 25.522092 0 0 1 19.361587-8.360685c256.100988 2.640216 463.79801-172.0541 465.99819-387.671771s-201.976553-396.032456-458.077541-396.032456S53.6844 223.134367 51.484219 440.072145a363.469787 363.469787 0 0 0 132.010819 277.662756 25.522092 25.522092 0 0 1-33.882777 38.723173A414.954007 414.954007 0 0 1 0 440.072145C2.640216 192.331842 235.419293-3.044169 517.922445 0.036083s511.321904 202.856625 508.681688 448.836784z" fill="#E6E6E6" p-id="77738"></path></svg>