<?xml version="1.0" standalone="no"?><!DOCTYPE svg PUBLIC "-//W3C//DTD SVG 1.1//EN" "http://www.w3.org/Graphics/SVG/1.1/DTD/svg11.dtd"><svg t="1646223340442" class="icon" viewBox="0 0 1024 1024" version="1.1" xmlns="http://www.w3.org/2000/svg" p-id="3410" xmlns:xlink="http://www.w3.org/1999/xlink" width="200" height="200"><defs><style type="text/css"></style></defs><path d="M524.190476 268.190476h438.857143c19.504762 0 36.571429-17.066667 36.571429-36.571428S982.552381 195.047619 963.047619 195.047619h-438.857143c-19.504762 0-36.571429 17.066667-36.571428 36.571429s17.066667 36.571429 36.571428 36.571428zM99.961905 346.209524l104.838095-68.266667 14.628571-14.628571c14.628571-21.942857 7.314286-51.2-14.628571-65.828572L99.961905 129.219048C92.647619 124.342857 82.895238 121.904762 73.142857 121.904762c-26.819048 0-48.761905 21.942857-48.761905 48.761905v134.095238c0 9.752381 2.438095 19.504762 7.314286 26.819047 14.628571 21.942857 46.32381 29.257143 68.266667 14.628572zM963.047619 828.952381h-902.095238c-19.504762 0-36.571429 17.066667-36.571429 36.571429S41.447619 902.095238 60.952381 902.095238h902.095238c19.504762 0 36.571429-17.066667 36.571429-36.571428s-17.066667-36.571429-36.571429-36.571429zM963.047619 512h-902.095238c-19.504762 0-36.571429 17.066667-36.571429 36.571429S41.447619 585.142857 60.952381 585.142857h902.095238c19.504762 0 36.571429-17.066667 36.571429-36.571428s-17.066667-36.571429-36.571429-36.571429z" p-id="3411"></path></svg>